hintordertest_ddd.ufo
<glyph name="uni001E" format="2">
  <advance width="1056"/>
  <unicode hex="001E"/>
  <outline>
    <contour>
      <point x="418" y="690" type="line"/>
      <point x="478" y="690" type="line"/>
      <point x="484" y="886" type="line"/>
      <point x="412" y="886" type="line"/>
    </contour>
    <contour>
      <point x="190" y="0" type="line"/>
      <point x="331" y="0" type="line"/>
      <point x="331" y="56" type="line"/>
      <point x="321" y="56" type="line"/>
      <point x="190" y="41" type="line"/>
    </contour>
    <contour>
      <point x="281" y="0" type="curve"/>
      <point x="382" y="0" type="line"/>
      <point x="379" y="103"/>
      <point x="379" y="207"/>
      <point x="379" y="322" type="curve" smooth="yes"/>
      <point x="379" y="359" type="line" smooth="yes"/>
      <point x="379" y="464"/>
      <point x="379" y="569"/>
      <point x="382" y="670" type="curve"/>
      <point x="281" y="670" type="line"/>
      <point x="284" y="567"/>
      <point x="284" y="462"/>
      <point x="284" y="359" type="curve" smooth="yes"/>
      <point x="284" y="322" type="line" smooth="yes"/>
      <point x="284" y="205"/>
      <point x="284" y="101"/>
    </contour>
    <contour>
      <point x="331" y="0" type="line"/>
      <point x="466" y="0" type="line" smooth="yes"/>
      <point x="661" y="0"/>
      <point x="809" y="118"/>
      <point x="809" y="334" type="curve" smooth="yes"/>
      <point x="809" y="551"/>
      <point x="677" y="670"/>
      <point x="485" y="670" type="curve" smooth="yes"/>
      <point x="331" y="670" type="line"/>
      <point x="331" y="624" type="line"/>
      <point x="469" y="624" type="line" smooth="yes"/>
      <point x="614" y="624"/>
      <point x="700" y="522"/>
      <point x="700" y="334" type="curve" smooth="yes"/>
      <point x="700" y="152"/>
      <point x="614" y="47"/>
      <point x="460" y="47" type="curve" smooth="yes"/>
      <point x="331" y="47" type="line"/>
    </contour>
    <contour>
      <point x="190" y="629" type="line"/>
      <point x="321" y="614" type="line"/>
      <point x="331" y="614" type="line"/>
      <point x="331" y="670" type="line"/>
      <point x="190" y="670" type="line"/>
    </contour>
  </outline>
</glyph>
<glyph name="uni001E" format="2">
  <advance width="1026"/>
  <unicode hex="001E"/>
  <outline>
    <contour>
      <point x="44" y="0" type="line"/>
      <point x="185" y="0" type="line"/>
      <point x="185" y="56" type="line"/>
      <point x="175" y="56" type="line"/>
      <point x="44" y="41" type="line"/>
    </contour>
    <contour>
      <point x="727" y="180" type="curve" smooth="yes"/>
      <point x="760" y="180"/>
      <point x="787" y="204"/>
      <point x="787" y="237" type="curve" smooth="yes"/>
      <point x="787" y="269"/>
      <point x="760" y="294"/>
      <point x="727" y="294" type="curve" smooth="yes"/>
      <point x="695" y="294"/>
      <point x="668" y="269"/>
      <point x="668" y="237" type="curve" smooth="yes"/>
      <point x="668" y="204"/>
      <point x="695" y="180"/>
    </contour>
    <contour>
      <point x="937" y="180" type="curve" smooth="yes"/>
      <point x="969" y="180"/>
      <point x="996" y="204"/>
      <point x="996" y="237" type="curve" smooth="yes"/>
      <point x="996" y="269"/>
      <point x="969" y="294"/>
      <point x="937" y="294" type="curve" smooth="yes"/>
      <point x="904" y="294"/>
      <point x="877" y="269"/>
      <point x="877" y="237" type="curve" smooth="yes"/>
      <point x="877" y="204"/>
      <point x="904" y="180"/>
    </contour>
    <contour>
      <point x="135" y="0" type="curve"/>
      <point x="236" y="0" type="line"/>
      <point x="233" y="103"/>
      <point x="233" y="207"/>
      <point x="233" y="322" type="curve" smooth="yes"/>
      <point x="233" y="359" type="line" smooth="yes"/>
      <point x="233" y="464"/>
      <point x="233" y="569"/>
      <point x="236" y="670" type="curve"/>
      <point x="135" y="670" type="line"/>
      <point x="138" y="567"/>
      <point x="138" y="462"/>
      <point x="138" y="359" type="curve" smooth="yes"/>
      <point x="138" y="310" type="line" smooth="yes"/>
      <point x="138" y="205"/>
      <point x="138" y="101"/>
    </contour>
    <contour>
      <point x="185" y="0" type="line"/>
      <point x="562" y="0" type="line"/>
      <point x="569" y="178" type="line"/>
      <point x="512" y="178" type="line"/>
      <point x="485" y="20" type="line"/>
      <point x="520" y="50" type="line"/>
      <point x="185" y="50" type="line"/>
    </contour>
    <contour>
      <point x="185" y="318" type="line"/>
      <point x="411" y="318" type="line"/>
      <point x="411" y="365" type="line"/>
      <point x="185" y="365" type="line"/>
    </contour>
    <contour>
      <point x="394" y="224" type="line"/>
      <point x="440" y="224" type="line"/>
      <point x="440" y="460" type="line"/>
      <point x="394" y="460" type="line"/>
      <point x="379" y="355" type="line"/>
      <point x="379" y="335" type="line"/>
    </contour>
    <contour>
      <point x="44" y="629" type="line"/>
      <point x="175" y="614" type="line"/>
      <point x="185" y="614" type="line"/>
      <point x="185" y="670" type="line"/>
      <point x="44" y="670" type="line"/>
    </contour>
    <contour>
      <point x="492" y="493" type="line"/>
      <point x="549" y="493" type="line"/>
      <point x="542" y="670" type="line"/>
      <point x="185" y="670" type="line"/>
      <point x="185" y="620" type="line"/>
      <point x="500" y="620" type="line"/>
      <point x="465" y="650" type="line"/>
    </contour>
  </outline>
</glyph>
<glyph name="uni001E" format="2">
  <advance width="983"/>
  <unicode hex="001E"/>
  <outline>
    <contour>
      <point x="246" y="0" type="line"/>
      <point x="530" y="0" type="line"/>
      <point x="530" y="41" type="line"/>
      <point x="399" y="56" type="line"/>
      <point x="377" y="56" type="line"/>
      <point x="246" y="41" type="line"/>
    </contour>
    <contour>
      <point x="337" y="0" type="curve"/>
      <point x="438" y="0" type="line"/>
      <point x="435" y="103"/>
      <point x="435" y="207"/>
      <point x="435" y="322" type="curve" smooth="yes"/>
      <point x="435" y="359" type="line" smooth="yes"/>
      <point x="435" y="464"/>
      <point x="435" y="569"/>
      <point x="438" y="670" type="curve"/>
      <point x="337" y="670" type="line"/>
      <point x="340" y="567"/>
      <point x="340" y="462"/>
      <point x="340" y="359" type="curve" smooth="yes"/>
      <point x="340" y="310" type="line" smooth="yes"/>
      <point x="340" y="205"/>
      <point x="340" y="101"/>
    </contour>
    <contour>
      <point x="387" y="318" type="line"/>
      <point x="621" y="318" type="line"/>
      <point x="621" y="365" type="line"/>
      <point x="387" y="365" type="line"/>
    </contour>
    <contour>
      <point x="431" y="707" type="curve" smooth="yes"/>
      <point x="469" y="707"/>
      <point x="498" y="733"/>
      <point x="498" y="771" type="curve" smooth="yes"/>
      <point x="498" y="808"/>
      <point x="469" y="835"/>
      <point x="431" y="835" type="curve" smooth="yes"/>
      <point x="393" y="835"/>
      <point x="364" y="808"/>
      <point x="364" y="771" type="curve" smooth="yes"/>
      <point x="364" y="733"/>
      <point x="393" y="707"/>
    </contour>
    <contour>
      <point x="604" y="214" type="line"/>
      <point x="650" y="214" type="line"/>
      <point x="650" y="460" type="line"/>
      <point x="604" y="460" type="line"/>
      <point x="589" y="355" type="line"/>
      <point x="589" y="325" type="line"/>
    </contour>
    <contour>
      <point x="246" y="629" type="line"/>
      <point x="377" y="614" type="line"/>
      <point x="387" y="614" type="line"/>
      <point x="387" y="670" type="line"/>
      <point x="246" y="670" type="line"/>
    </contour>
    <contour>
      <point x="694" y="493" type="line"/>
      <point x="751" y="493" type="line"/>
      <point x="744" y="670" type="line"/>
      <point x="387" y="670" type="line"/>
      <point x="387" y="620" type="line"/>
      <point x="702" y="620" type="line"/>
      <point x="667" y="650" type="line"/>
    </contour>
  </outline>
</glyph>
<glyph name="uni001E" format="2">
  <advance width="1323"/>
  <unicode hex="001E"/>
  <outline>
    <contour>
      <point x="310" y="0" type="line"/>
      <point x="592" y="0" type="line"/>
      <point x="592" y="41" type="line"/>
      <point x="461" y="56" type="line"/>
      <point x="441" y="56" type="line"/>
      <point x="310" y="41" type="line"/>
    </contour>
    <contour>
      <point x="401" y="0" type="curve"/>
      <point x="502" y="0" type="line"/>
      <point x="499" y="103"/>
      <point x="499" y="207"/>
      <point x="499" y="329" type="curve" smooth="yes"/>
      <point x="499" y="359" type="line" smooth="yes"/>
      <point x="499" y="464"/>
      <point x="499" y="569"/>
      <point x="502" y="670" type="curve"/>
      <point x="401" y="670" type="line"/>
      <point x="404" y="567"/>
      <point x="404" y="462"/>
      <point x="404" y="359" type="curve" smooth="yes"/>
      <point x="404" y="310" type="line" smooth="yes"/>
      <point x="404" y="205"/>
      <point x="404" y="101"/>
    </contour>
    <contour>
      <point x="451" y="319" type="line"/>
      <point x="869" y="319" type="line"/>
      <point x="869" y="366" type="line"/>
      <point x="451" y="366" type="line"/>
    </contour>
    <contour>
      <point x="575" y="735" type="curve" smooth="yes"/>
      <point x="538" y="735"/>
      <point x="518" y="766"/>
      <point x="518" y="797" type="curve" smooth="yes"/>
      <point x="518" y="828"/>
      <point x="539" y="858"/>
      <point x="575" y="858" type="curve" smooth="yes"/>
      <point x="612" y="858"/>
      <point x="632" y="828"/>
      <point x="632" y="797" type="curve" smooth="yes"/>
      <point x="632" y="766"/>
      <point x="611" y="735"/>
    </contour>
    <contour>
      <point x="575" y="695" type="curve" smooth="yes"/>
      <point x="629" y="695"/>
      <point x="680" y="733"/>
      <point x="680" y="797" type="curve" smooth="yes"/>
      <point x="680" y="862"/>
      <point x="629" y="898"/>
      <point x="575" y="898" type="curve" smooth="yes"/>
      <point x="521" y="898"/>
      <point x="470" y="859"/>
      <point x="470" y="797" type="curve" smooth="yes"/>
      <point x="470" y="732"/>
      <point x="521" y="695"/>
    </contour>
    <contour>
      <point x="728" y="0" type="line"/>
      <point x="1010" y="0" type="line"/>
      <point x="1010" y="41" type="line"/>
      <point x="880" y="56" type="line"/>
      <point x="859" y="56" type="line"/>
      <point x="728" y="41" type="line"/>
    </contour>
    <contour>
      <point x="819" y="0" type="curve"/>
      <point x="919" y="0" type="line"/>
      <point x="916" y="103"/>
      <point x="916" y="207"/>
      <point x="916" y="310" type="curve" smooth="yes"/>
      <point x="916" y="359" type="line" smooth="yes"/>
      <point x="916" y="464"/>
      <point x="916" y="569"/>
      <point x="919" y="670" type="curve"/>
      <point x="819" y="670" type="line"/>
      <point x="822" y="567"/>
      <point x="822" y="462"/>
      <point x="822" y="359" type="curve" smooth="yes"/>
      <point x="822" y="329" type="line" smooth="yes"/>
      <point x="822" y="205"/>
      <point x="822" y="101"/>
    </contour>
    <contour>
      <point x="310" y="629" type="line"/>
      <point x="441" y="614" type="line"/>
      <point x="461" y="614" type="line"/>
      <point x="592" y="629" type="line"/>
      <point x="592" y="670" type="line"/>
      <point x="310" y="670" type="line"/>
    </contour>
    <contour>
      <point x="728" y="629" type="line"/>
      <point x="859" y="614" type="line"/>
      <point x="880" y="614" type="line"/>
      <point x="1010" y="629" type="line"/>
      <point x="1010" y="670" type="line"/>
      <point x="728" y="670" type="line"/>
    </contour>
  </outline>
</glyph>
<glyph name="uni001E" format="2">
  <advance width="1288"/>
  <unicode hex="001E"/>
  <outline>
    <contour>
      <point x="492" y="702" type="curve" smooth="yes"/>
      <point x="525" y="702"/>
      <point x="552" y="726"/>
      <point x="552" y="759" type="curve" smooth="yes"/>
      <point x="552" y="791"/>
      <point x="525" y="816"/>
      <point x="492" y="816" type="curve" smooth="yes"/>
      <point x="460" y="816"/>
      <point x="433" y="791"/>
      <point x="433" y="759" type="curve" smooth="yes"/>
      <point x="433" y="726"/>
      <point x="460" y="702"/>
    </contour>
    <contour>
      <point x="702" y="702" type="curve" smooth="yes"/>
      <point x="734" y="702"/>
      <point x="761" y="726"/>
      <point x="761" y="759" type="curve" smooth="yes"/>
      <point x="761" y="791"/>
      <point x="734" y="816"/>
      <point x="702" y="816" type="curve" smooth="yes"/>
      <point x="669" y="816"/>
      <point x="642" y="791"/>
      <point x="642" y="759" type="curve" smooth="yes"/>
      <point x="642" y="726"/>
      <point x="669" y="702"/>
    </contour>
    <contour>
      <point x="593" y="-133" type="curve" smooth="yes"/>
      <point x="639" y="-133"/>
      <point x="678" y="-117"/>
      <point x="712" y="-75" type="curve" smooth="yes"/>
      <point x="760" y="-17"/>
      <point x="769" y="41"/>
      <point x="769" y="215" type="curve" smooth="yes"/>
      <point x="769" y="360" type="line" smooth="yes"/>
      <point x="769" y="465"/>
      <point x="769" y="569"/>
      <point x="772" y="670" type="curve"/>
      <point x="675" y="670" type="line"/>
      <point x="680" y="178"/>
      <point x="680" y="205"/>
      <point x="680" y="122" type="curve" smooth="yes"/>
      <point x="680" y="-9"/>
      <point x="673" y="-55"/>
      <point x="648" y="-94" type="curve"/>
      <point x="648" y="-98" type="line"/>
      <point x="675" y="-98" type="line"/>
      <point x="675" y="-90" type="line"/>
      <point x="641" y="-64" type="line" smooth="yes"/>
      <point x="613" y="-43"/>
      <point x="592" y="-35"/>
      <point x="566" y="-35" type="curve" smooth="yes"/>
      <point x="535" y="-35"/>
      <point x="512" y="-47"/>
      <point x="506" y="-84" type="curve"/>
      <point x="515" y="-122"/>
      <point x="554" y="-133"/>
    </contour>
    <contour>
      <point x="570" y="629" type="line"/>
      <point x="711" y="614" type="line"/>
      <point x="732" y="614" type="line"/>
      <point x="863" y="629" type="line"/>
      <point x="863" y="670" type="line"/>
      <point x="570" y="670" type="line"/>
    </contour>
  </outline>
</glyph>
<glyph name="uni001E" format="2">
  <advance width="1042"/>
  <unicode hex="001E"/>
  <outline>
    <contour>
      <point x="185" y="0" type="line"/>
      <point x="427" y="0" type="line"/>
      <point x="427" y="41" type="line"/>
      <point x="311" y="56" type="line"/>
      <point x="290" y="56" type="line"/>
      <point x="185" y="41" type="line"/>
    </contour>
    <contour>
      <point x="270" y="0" type="line"/>
      <point x="321" y="0" type="line"/>
      <point x="321" y="335" type="line"/>
      <point x="321" y="647" type="line"/>
      <point x="270" y="647" type="line"/>
    </contour>
    <contour>
      <point x="600" y="629" type="line"/>
      <point x="721" y="614" type="line"/>
      <point x="741" y="614" type="line"/>
      <point x="841" y="629" type="line"/>
      <point x="841" y="670" type="line"/>
      <point x="600" y="670" type="line"/>
    </contour>
    <contour>
      <point x="411" y="690" type="line"/>
      <point x="471" y="690" type="line"/>
      <point x="477" y="886" type="line"/>
      <point x="405" y="886" type="line"/>
    </contour>
    <contour>
      <point x="721" y="-7" type="line"/>
      <point x="756" y="-7" type="line"/>
      <point x="756" y="670" type="line"/>
      <point x="705" y="670" type="line"/>
      <point x="705" y="335" type="line"/>
      <point x="705" y="143" type="line"/>
      <point x="722" y="148" type="line"/>
      <point x="355" y="670" type="line"/>
      <point x="190" y="670" type="line"/>
      <point x="190" y="629" type="line"/>
      <point x="276" y="621" type="line"/>
      <point x="310" y="571" type="line"/>
      <point x="312" y="571" type="line"/>
    </contour>
  </outline>
</glyph>
<glyph name="uni001E" format="2">
  <advance width="1166"/>
  <unicode hex="001E"/>
  <outline>
    <contour>
      <point x="867" y="177" type="curve" smooth="yes"/>
      <point x="900" y="177"/>
      <point x="927" y="201"/>
      <point x="927" y="234" type="curve" smooth="yes"/>
      <point x="927" y="266"/>
      <point x="900" y="291"/>
      <point x="867" y="291" type="curve" smooth="yes"/>
      <point x="835" y="291"/>
      <point x="808" y="266"/>
      <point x="808" y="234" type="curve" smooth="yes"/>
      <point x="808" y="201"/>
      <point x="835" y="177"/>
    </contour>
    <contour>
      <point x="1077" y="177" type="curve" smooth="yes"/>
      <point x="1109" y="177"/>
      <point x="1136" y="201"/>
      <point x="1136" y="234" type="curve" smooth="yes"/>
      <point x="1136" y="266"/>
      <point x="1109" y="291"/>
      <point x="1077" y="291" type="curve" smooth="yes"/>
      <point x="1044" y="291"/>
      <point x="1017" y="266"/>
      <point x="1017" y="234" type="curve" smooth="yes"/>
      <point x="1017" y="201"/>
      <point x="1044" y="177"/>
    </contour>
    <contour>
      <point x="354" y="-15" type="curve" smooth="yes"/>
      <point x="509" y="-15"/>
      <point x="660" y="115"/>
      <point x="660" y="335" type="curve" smooth="yes"/>
      <point x="660" y="563"/>
      <point x="508" y="685"/>
      <point x="354" y="685" type="curve" smooth="yes"/>
      <point x="199" y="685"/>
      <point x="47" y="554"/>
      <point x="47" y="335" type="curve" smooth="yes"/>
      <point x="47" y="106"/>
      <point x="198" y="-15"/>
    </contour>
    <contour>
      <point x="354" y="35" type="curve" smooth="yes"/>
      <point x="215" y="35"/>
      <point x="156" y="184"/>
      <point x="156" y="335" type="curve" smooth="yes"/>
      <point x="156" y="485"/>
      <point x="215" y="635"/>
      <point x="354" y="635" type="curve" smooth="yes"/>
      <point x="493" y="635"/>
      <point x="550" y="485"/>
      <point x="550" y="335" type="curve" smooth="yes"/>
      <point x="550" y="184"/>
      <point x="493" y="35"/>
    </contour>
  </outline>
</glyph>
<glyph name="uni001E" format="2">
  <advance width="1092"/>
  <unicode hex="001E"/>
  <outline>
    <contour>
      <point x="480" y="749" type="curve" smooth="yes"/>
      <point x="443" y="749"/>
      <point x="423" y="780"/>
      <point x="423" y="811" type="curve" smooth="yes"/>
      <point x="423" y="842"/>
      <point x="444" y="872"/>
      <point x="480" y="872" type="curve" smooth="yes"/>
      <point x="517" y="872"/>
      <point x="537" y="842"/>
      <point x="537" y="811" type="curve" smooth="yes"/>
      <point x="537" y="780"/>
      <point x="516" y="749"/>
    </contour>
    <contour>
      <point x="480" y="709" type="curve" smooth="yes"/>
      <point x="534" y="709"/>
      <point x="585" y="747"/>
      <point x="585" y="811" type="curve" smooth="yes"/>
      <point x="585" y="876"/>
      <point x="534" y="912"/>
      <point x="480" y="912" type="curve" smooth="yes"/>
      <point x="426" y="912"/>
      <point x="375" y="873"/>
      <point x="375" y="811" type="curve" smooth="yes"/>
      <point x="375" y="746"/>
      <point x="426" y="709"/>
    </contour>
    <contour>
      <point x="488" y="-15" type="curve" smooth="yes"/>
      <point x="627" y="-15"/>
      <point x="725" y="57"/>
      <point x="725" y="175" type="curve" smooth="yes"/>
      <point x="725" y="270"/>
      <point x="674" y="328"/>
      <point x="543" y="379" type="curve"/>
      <point x="503" y="394" type="line" smooth="yes"/>
      <point x="431" y="422"/>
      <point x="390" y="460"/>
      <point x="390" y="522" type="curve" smooth="yes"/>
      <point x="390" y="596"/>
      <point x="449" y="635"/>
      <point x="525" y="635" type="curve" smooth="yes"/>
      <point x="578" y="635"/>
      <point x="615" y="618"/>
      <point x="665" y="570" type="curve"/>
      <point x="665" y="620" type="line"/>
      <point x="600" y="653" type="line"/>
      <point x="628" y="502" type="line"/>
      <point x="689" y="502" type="line"/>
      <point x="695" y="633" type="line"/>
      <point x="652" y="665"/>
      <point x="598" y="685"/>
      <point x="531" y="685" type="curve" smooth="yes"/>
      <point x="403" y="685"/>
      <point x="306" y="615"/>
      <point x="306" y="500" type="curve" smooth="yes"/>
      <point x="306" y="398"/>
      <point x="375" y="338"/>
      <point x="478" y="298" type="curve"/>
      <point x="517" y="282" type="line"/>
      <point x="602" y="249"/>
      <point x="640" y="220"/>
      <point x="640" y="156" type="curve" smooth="yes"/>
      <point x="640" y="79"/>
      <point x="579" y="35"/>
      <point x="485" y="35" type="curve" smooth="yes"/>
      <point x="417" y="35"/>
      <point x="383" y="55"/>
      <point x="321" y="100" type="curve"/>
      <point x="321" y="52" type="line"/>
      <point x="387" y="24" type="line"/>
      <point x="361" y="178" type="line"/>
      <point x="299" y="178" type="line"/>
      <point x="293" y="38" type="line"/>
      <point x="339" y="8"/>
      <point x="413" y="-15"/>
    </contour>
  </outline>
</glyph>
<glyph name="uni001E" format="2">
  <advance width="1529"/>
  <unicode hex="001E"/>
  <outline>
    <contour>
      <point x="790" y="-15" type="curve" smooth="yes"/>
      <point x="927" y="-15"/>
      <point x="1029" y="63"/>
      <point x="1029" y="274" type="curve" smooth="yes"/>
      <point x="1029" y="670" type="line"/>
      <point x="978" y="670" type="line"/>
      <point x="978" y="298" type="line" smooth="yes"/>
      <point x="978" y="121"/>
      <point x="920" y="56"/>
      <point x="807" y="56" type="curve" smooth="yes"/>
      <point x="705" y="56"/>
      <point x="641" y="110"/>
      <point x="641" y="281" type="curve" smooth="yes"/>
      <point x="641" y="360" type="line" smooth="yes"/>
      <point x="641" y="465"/>
      <point x="641" y="569"/>
      <point x="644" y="670" type="curve"/>
      <point x="544" y="670" type="line"/>
      <point x="547" y="567"/>
      <point x="547" y="463"/>
      <point x="547" y="360" type="curve" smooth="yes"/>
      <point x="547" y="252" type="line" smooth="yes"/>
      <point x="547" y="65"/>
      <point x="645" y="-15"/>
    </contour>
    <contour>
      <point x="462" y="629" type="line"/>
      <point x="593" y="614" type="line"/>
      <point x="614" y="614" type="line"/>
      <point x="745" y="629" type="line"/>
      <point x="745" y="670" type="line"/>
      <point x="462" y="670" type="line"/>
    </contour>
    <contour>
      <point x="590" y="702" type="curve" smooth="yes"/>
      <point x="623" y="702"/>
      <point x="650" y="726"/>
      <point x="650" y="759" type="curve" smooth="yes"/>
      <point x="650" y="791"/>
      <point x="623" y="816"/>
      <point x="590" y="816" type="curve" smooth="yes"/>
      <point x="558" y="816"/>
      <point x="531" y="791"/>
      <point x="531" y="759" type="curve" smooth="yes"/>
      <point x="531" y="726"/>
      <point x="558" y="702"/>
    </contour>
    <contour>
      <point x="800" y="702" type="curve" smooth="yes"/>
      <point x="832" y="702"/>
      <point x="859" y="726"/>
      <point x="859" y="759" type="curve" smooth="yes"/>
      <point x="859" y="791"/>
      <point x="832" y="816"/>
      <point x="800" y="816" type="curve" smooth="yes"/>
      <point x="767" y="816"/>
      <point x="740" y="791"/>
      <point x="740" y="759" type="curve" smooth="yes"/>
      <point x="740" y="726"/>
      <point x="767" y="702"/>
    </contour>
    <contour>
      <point x="876" y="629" type="line"/>
      <point x="986" y="615" type="line"/>
      <point x="1006" y="615" type="line"/>
      <point x="1116" y="629" type="line"/>
      <point x="1116" y="670" type="line"/>
      <point x="876" y="670" type="line"/>
    </contour>
  </outline>
</glyph>
<glyph name="uni001E" format="2">
  <advance width="934"/>
  <unicode hex="001E"/>
  <outline>
    <contour>
      <point x="837" y="172" type="curve" smooth="yes"/>
      <point x="875" y="172"/>
      <point x="904" y="198"/>
      <point x="904" y="236" type="curve" smooth="yes"/>
      <point x="904" y="273"/>
      <point x="875" y="300"/>
      <point x="837" y="300" type="curve" smooth="yes"/>
      <point x="799" y="300"/>
      <point x="770" y="273"/>
      <point x="770" y="236" type="curve" smooth="yes"/>
      <point x="770" y="198"/>
      <point x="799" y="172"/>
    </contour>
    <contour>
      <point x="323" y="-7" type="line"/>
      <point x="367" y="-7" type="line"/>
      <point x="596" y="670" type="line"/>
      <point x="541" y="670" type="line"/>
      <point x="355" y="122" type="line"/>
      <point x="350" y="107" type="line"/>
      <point x="370" y="107" type="line"/>
      <point x="173" y="670" type="line"/>
      <point x="72" y="670" type="line"/>
    </contour>
    <contour>
      <point x="15" y="629" type="line"/>
      <point x="145" y="614" type="line"/>
      <point x="166" y="614" type="line"/>
      <point x="288" y="625" type="line"/>
      <point x="288" y="670" type="line"/>
      <point x="15" y="670" type="line"/>
    </contour>
    <contour>
      <point x="434" y="625" type="line"/>
      <point x="535" y="614" type="line"/>
      <point x="555" y="614" type="line"/>
      <point x="665" y="629" type="line"/>
      <point x="665" y="670" type="line"/>
      <point x="434" y="670" type="line"/>
    </contour>
  </outline>
</glyph>
<glyph name="uni001E" format="2">
  <advance width="1726"/>
  <unicode hex="001E"/>
  <outline>
    <contour>
      <point x="591" y="-7" type="line"/>
      <point x="634" y="-7" type="line"/>
      <point x="801" y="527" type="line"/>
      <point x="806" y="542" type="line"/>
      <point x="787" y="542" type="line"/>
      <point x="970" y="-7" type="line"/>
      <point x="1013" y="-7" type="line"/>
      <point x="1196" y="670" type="line"/>
      <point x="1145" y="670" type="line"/>
      <point x="999" y="140" type="line"/>
      <point x="995" y="124" type="line"/>
      <point x="1012" y="124" type="line"/>
      <point x="837" y="670" type="line"/>
      <point x="801" y="670" type="line"/>
      <point x="626" y="144" type="line"/>
      <point x="621" y="128" type="line"/>
      <point x="639" y="128" type="line"/>
      <point x="494" y="670" type="line"/>
      <point x="396" y="670" type="line"/>
    </contour>
    <contour>
      <point x="605" y="702" type="line"/>
      <point x="845" y="702" type="line"/>
      <point x="845" y="765" type="line"/>
      <point x="605" y="765" type="line"/>
    </contour>
    <contour>
      <point x="328" y="629" type="line"/>
      <point x="458" y="614" type="line"/>
      <point x="479" y="614" type="line"/>
      <point x="600" y="629" type="line"/>
      <point x="600" y="670" type="line"/>
      <point x="328" y="670" type="line"/>
    </contour>
    <contour>
      <point x="683" y="629" type="line"/>
      <point x="811" y="614" type="line"/>
      <point x="833" y="614" type="line"/>
      <point x="955" y="629" type="line"/>
      <point x="955" y="670" type="line"/>
      <point x="683" y="670" type="line"/>
    </contour>
    <contour>
      <point x="1039" y="629" type="line"/>
      <point x="1143" y="614" type="line"/>
      <point x="1163" y="614" type="line"/>
      <point x="1266" y="629" type="line"/>
      <point x="1266" y="670" type="line"/>
      <point x="1039" y="670" type="line"/>
    </contour>
  </outline>
</glyph>
<glyph name="uni001E" format="2">
  <advance width="984"/>
  <unicode hex="001E"/>
  <outline>
    <contour>
      <point x="10" y="0" type="line"/>
      <point x="239" y="0" type="line"/>
      <point x="239" y="41" type="line"/>
      <point x="139" y="55" type="line"/>
      <point x="119" y="55" type="line"/>
      <point x="10" y="41" type="line"/>
    </contour>
    <contour>
      <point x="849" y="168" type="curve" smooth="yes"/>
      <point x="812" y="168"/>
      <point x="792" y="199"/>
      <point x="792" y="230" type="curve" smooth="yes"/>
      <point x="792" y="261"/>
      <point x="813" y="291"/>
      <point x="849" y="291" type="curve" smooth="yes"/>
      <point x="886" y="291"/>
      <point x="906" y="261"/>
      <point x="906" y="230" type="curve" smooth="yes"/>
      <point x="906" y="199"/>
      <point x="885" y="168"/>
    </contour>
    <contour>
      <point x="849" y="128" type="curve" smooth="yes"/>
      <point x="903" y="128"/>
      <point x="954" y="166"/>
      <point x="954" y="230" type="curve" smooth="yes"/>
      <point x="954" y="295"/>
      <point x="903" y="331"/>
      <point x="849" y="331" type="curve" smooth="yes"/>
      <point x="795" y="331"/>
      <point x="744" y="292"/>
      <point x="744" y="230" type="curve" smooth="yes"/>
      <point x="744" y="165"/>
      <point x="795" y="128"/>
    </contour>
    <contour>
      <point x="70" y="0" type="line"/>
      <point x="128" y="0" type="line"/>
      <point x="320" y="303" type="line"/>
      <point x="336" y="328" type="line"/>
      <point x="343" y="328" type="line"/>
      <point x="303" y="354" type="line"/>
    </contour>
    <contour>
      <point x="356" y="0" type="line"/>
      <point x="639" y="0" type="line"/>
      <point x="639" y="41" type="line"/>
      <point x="508" y="56" type="line"/>
      <point x="486" y="56" type="line"/>
      <point x="356" y="41" type="line"/>
    </contour>
    <contour>
      <point x="354" y="346" type="line"/>
      <point x="563" y="670" type="line"/>
      <point x="506" y="670" type="line"/>
      <point x="332" y="390" type="line"/>
      <point x="321" y="373" type="line"/>
      <point x="316" y="373" type="line"/>
    </contour>
    <contour>
      <point x="479" y="0" type="line"/>
      <point x="584" y="0" type="line"/>
      <point x="181" y="670" type="line"/>
      <point x="76" y="670" type="line"/>
    </contour>
    <contour>
      <point x="19" y="629" type="line"/>
      <point x="148" y="614" type="line"/>
      <point x="170" y="614" type="line"/>
      <point x="300" y="629" type="line"/>
      <point x="300" y="670" type="line"/>
      <point x="19" y="670" type="line"/>
    </contour>
    <contour>
      <point x="388" y="629" type="line"/>
      <point x="488" y="615" type="line"/>
      <point x="508" y="615" type="line"/>
      <point x="617" y="629" type="line"/>
      <point x="617" y="670" type="line"/>
      <point x="388" y="670" type="line"/>
    </contour>
  </outline>
</glyph>
<glyph name="uni001E" format="2">
  <advance width="1004"/>
  <unicode hex="001E"/>
  <outline>
    <contour>
      <point x="329" y="0" type="line"/>
      <point x="631" y="0" type="line"/>
      <point x="631" y="41" type="line"/>
      <point x="490" y="56" type="line"/>
      <point x="469" y="56" type="line"/>
      <point x="329" y="41" type="line"/>
    </contour>
    <contour>
      <point x="430" y="0" type="curve"/>
      <point x="530" y="0" type="line"/>
      <point x="527" y="89"/>
      <point x="527" y="184"/>
      <point x="527" y="301" type="curve"/>
      <point x="433" y="301" type="line"/>
      <point x="433" y="183"/>
      <point x="433" y="87"/>
    </contour>
    <contour>
      <point x="397" y="690" type="line"/>
      <point x="457" y="690" type="line"/>
      <point x="463" y="886" type="line"/>
      <point x="391" y="886" type="line"/>
    </contour>
    <contour>
      <point x="450" y="224" type="line"/>
      <point x="508" y="224" type="line"/>
      <point x="723" y="670" type="line"/>
      <point x="671" y="670" type="line"/>
      <point x="494" y="294" type="line"/>
      <point x="486" y="278" type="line"/>
      <point x="520" y="278" type="line"/>
      <point x="340" y="670" type="line"/>
      <point x="231" y="670" type="line"/>
    </contour>
    <contour>
      <point x="187" y="629" type="line"/>
      <point x="308" y="614" type="line"/>
      <point x="329" y="614" type="line"/>
      <point x="459" y="629" type="line"/>
      <point x="459" y="670" type="line"/>
      <point x="187" y="670" type="line"/>
    </contour>
    <contour>
      <point x="556" y="629" type="line"/>
      <point x="666" y="614" type="line"/>
      <point x="686" y="614" type="line"/>
      <point x="785" y="629" type="line"/>
      <point x="785" y="670" type="line"/>
      <point x="556" y="670" type="line"/>
    </contour>
  </outline>
</glyph>
<glyph name="uni001E" format="2">
  <advance width="1030"/>
  <unicode hex="001E"/>
  <outline>
    <contour>
      <point x="731" y="180" type="curve" smooth="yes"/>
      <point x="764" y="180"/>
      <point x="791" y="204"/>
      <point x="791" y="237" type="curve" smooth="yes"/>
      <point x="791" y="269"/>
      <point x="764" y="294"/>
      <point x="731" y="294" type="curve" smooth="yes"/>
      <point x="699" y="294"/>
      <point x="672" y="269"/>
      <point x="672" y="237" type="curve" smooth="yes"/>
      <point x="672" y="204"/>
      <point x="699" y="180"/>
    </contour>
    <contour>
      <point x="941" y="180" type="curve" smooth="yes"/>
      <point x="973" y="180"/>
      <point x="1000" y="204"/>
      <point x="1000" y="237" type="curve" smooth="yes"/>
      <point x="1000" y="269"/>
      <point x="973" y="294"/>
      <point x="941" y="294" type="curve" smooth="yes"/>
      <point x="908" y="294"/>
      <point x="881" y="269"/>
      <point x="881" y="237" type="curve" smooth="yes"/>
      <point x="881" y="204"/>
      <point x="908" y="180"/>
    </contour>
    <contour>
      <point x="20" y="0" type="line"/>
      <point x="523" y="0" type="line"/>
      <point x="531" y="178" type="line"/>
      <point x="470" y="178" type="line"/>
      <point x="437" y="21" type="line"/>
      <point x="473" y="50" type="line"/>
      <point x="298" y="50" type="line"/>
      <point x="126" y="50" type="line"/>
      <point x="126" y="62" type="line"/>
      <point x="116" y="25" type="line"/>
      <point x="509" y="635" type="line"/>
      <point x="509" y="670" type="line"/>
      <point x="38" y="670" type="line"/>
      <point x="30" y="492" type="line"/>
      <point x="91" y="492" type="line"/>
      <point x="124" y="649" type="line"/>
      <point x="88" y="620" type="line"/>
      <point x="246" y="620" type="line"/>
      <point x="404" y="620" type="line"/>
      <point x="404" y="605" type="line"/>
      <point x="414" y="645" type="line"/>
      <point x="20" y="36" type="line"/>
    </contour>
  </outline>
</glyph>
<glyph name="uni001E" format="2">
  <advance width="1266"/>
  <unicode hex="001E"/>
  <outline>
    <contour>
      <point x="541" y="-240" type="curve" smooth="yes"/>
      <point x="712" y="-240"/>
      <point x="799" y="-153"/>
      <point x="799" y="-66" type="curve" smooth="yes"/>
      <point x="799" y="14"/>
      <point x="748" y="61"/>
      <point x="638" y="61" type="curve" smooth="yes"/>
      <point x="519" y="61" type="line" smooth="yes"/>
      <point x="471" y="61"/>
      <point x="449" y="78"/>
      <point x="449" y="115" type="curve" smooth="yes"/>
      <point x="449" y="137"/>
      <point x="462" y="159"/>
      <point x="491" y="190" type="curve"/>
      <point x="457" y="205" type="line"/>
      <point x="457" y="194" type="line"/>
      <point x="398" y="142"/>
      <point x="377" y="106"/>
      <point x="377" y="73" type="curve" smooth="yes"/>
      <point x="377" y="30"/>
      <point x="403" y="4"/>
      <point x="454" y="-7" type="curve"/>
      <point x="454" y="-10" type="line"/>
      <point x="470" y="-13"/>
      <point x="489" y="-14"/>
      <point x="507" y="-14" type="curve" smooth="yes"/>
      <point x="624" y="-14" type="line" smooth="yes"/>
      <point x="696" y="-14"/>
      <point x="724" y="-47"/>
      <point x="724" y="-92" type="curve" smooth="yes"/>
      <point x="724" y="-148"/>
      <point x="666" y="-193"/>
      <point x="556" y="-193" type="curve" smooth="yes"/>
      <point x="477" y="-193"/>
      <point x="427" y="-167"/>
      <point x="427" y="-102" type="curve" smooth="yes"/>
      <point x="427" y="-63"/>
      <point x="443" y="-34"/>
      <point x="483" y="4" type="curve"/>
      <point x="477" y="10" type="line"/>
      <point x="377" y="-31"/>
      <point x="345" y="-69"/>
      <point x="345" y="-118" type="curve" smooth="yes"/>
      <point x="345" y="-189"/>
      <point x="404" y="-240"/>
    </contour>
    <contour>
      <point x="548" y="160" type="curve" smooth="yes"/>
      <point x="652" y="160"/>
      <point x="729" y="219"/>
      <point x="729" y="324" type="curve" smooth="yes"/>
      <point x="729" y="370"/>
      <point x="715" y="407"/>
      <point x="691" y="434" type="curve"/>
      <point x="689" y="436" type="line"/>
      <point x="657" y="470"/>
      <point x="608" y="488"/>
      <point x="549" y="488" type="curve" smooth="yes"/>
      <point x="445" y="488"/>
      <point x="368" y="429"/>
      <point x="368" y="324" type="curve" smooth="yes"/>
      <point x="368" y="215"/>
      <point x="443" y="160"/>
    </contour>
    <contour>
      <point x="546" y="200" type="curve" smooth="yes"/>
      <point x="484" y="200"/>
      <point x="449" y="250"/>
      <point x="449" y="323" type="curve" smooth="yes"/>
      <point x="449" y="396"/>
      <point x="487" y="447"/>
      <point x="550" y="447" type="curve" smooth="yes"/>
      <point x="612" y="447"/>
      <point x="648" y="398"/>
      <point x="648" y="327" type="curve" smooth="yes"/>
      <point x="648" y="253"/>
      <point x="610" y="200"/>
    </contour>
    <contour>
      <point x="417" y="537" type="line"/>
      <point x="657" y="537" type="line"/>
      <point x="657" y="600" type="line"/>
      <point x="417" y="600" type="line"/>
    </contour>
    <contour>
      <point x="652" y="415" type="line"/>
      <point x="804" y="415" type="line"/>
      <point x="804" y="478" type="line"/>
      <point x="789" y="488" type="line"/>
      <point x="658" y="442" type="line"/>
      <point x="652" y="442" type="line"/>
    </contour>
  </outline>
</glyph>
<glyph name="uni001E" format="2">
  <advance width="1383"/>
  <unicode hex="001E"/>
  <outline>
    <contour>
      <point x="529" y="555" type="curve" smooth="yes"/>
      <point x="562" y="555"/>
      <point x="589" y="579"/>
      <point x="589" y="612" type="curve" smooth="yes"/>
      <point x="589" y="644"/>
      <point x="562" y="669"/>
      <point x="529" y="669" type="curve" smooth="yes"/>
      <point x="497" y="669"/>
      <point x="470" y="644"/>
      <point x="470" y="612" type="curve" smooth="yes"/>
      <point x="470" y="579"/>
      <point x="497" y="555"/>
    </contour>
    <contour>
      <point x="739" y="555" type="curve" smooth="yes"/>
      <point x="771" y="555"/>
      <point x="798" y="579"/>
      <point x="798" y="612" type="curve" smooth="yes"/>
      <point x="798" y="644"/>
      <point x="771" y="669"/>
      <point x="739" y="669" type="curve" smooth="yes"/>
      <point x="706" y="669"/>
      <point x="679" y="644"/>
      <point x="679" y="612" type="curve" smooth="yes"/>
      <point x="679" y="579"/>
      <point x="706" y="555"/>
    </contour>
    <contour>
      <point x="690" y="-13" type="curve" smooth="yes"/>
      <point x="806" y="-13"/>
      <point x="920" y="70"/>
      <point x="920" y="235" type="curve" smooth="yes"/>
      <point x="920" y="401"/>
      <point x="805" y="488"/>
      <point x="690" y="488" type="curve" smooth="yes"/>
      <point x="574" y="488"/>
      <point x="461" y="401"/>
      <point x="461" y="235" type="curve" smooth="yes"/>
      <point x="461" y="70"/>
      <point x="573" y="-13"/>
    </contour>
    <contour>
      <point x="690" y="32" type="curve" smooth="yes"/>
      <point x="603" y="32"/>
      <point x="556" y="101"/>
      <point x="556" y="235" type="curve" smooth="yes"/>
      <point x="556" y="370"/>
      <point x="603" y="442"/>
      <point x="690" y="442" type="curve" smooth="yes"/>
      <point x="776" y="442"/>
      <point x="825" y="370"/>
      <point x="825" y="235" type="curve" smooth="yes"/>
      <point x="825" y="101"/>
      <point x="776" y="32"/>
    </contour>
  </outline>
</glyph>
<glyph name="uni001E" format="2">
  <advance width="1270"/>
  <unicode hex="001E"/>
  <outline>
    <contour>
      <point x="593" y="-240" type="line"/>
      <point x="850" y="-240" type="line"/>
      <point x="850" y="-204" type="line"/>
      <point x="738" y="-184" type="line"/>
      <point x="714" y="-184" type="line"/>
      <point x="593" y="-204" type="line"/>
    </contour>
    <contour>
      <point x="543" y="-13" type="curve" smooth="yes"/>
      <point x="608" y="-13"/>
      <point x="657" y="16"/>
      <point x="699" y="83" type="curve"/>
      <point x="708" y="83" type="line"/>
      <point x="699" y="125" type="line"/>
      <point x="653" y="67"/>
      <point x="618" y="44"/>
      <point x="568" y="44" type="curve" smooth="yes"/>
      <point x="488" y="44"/>
      <point x="429" y="103"/>
      <point x="429" y="234" type="curve" smooth="yes"/>
      <point x="429" y="370"/>
      <point x="493" y="431"/>
      <point x="567" y="431" type="curve" smooth="yes"/>
      <point x="605" y="431"/>
      <point x="645" y="415"/>
      <point x="702" y="359" type="curve"/>
      <point x="712" y="403" type="line"/>
      <point x="700" y="403" type="line"/>
      <point x="651" y="467"/>
      <point x="601" y="488"/>
      <point x="549" y="488" type="curve" smooth="yes"/>
      <point x="430" y="488"/>
      <point x="339" y="385"/>
      <point x="339" y="232" type="curve" smooth="yes"/>
      <point x="339" y="86"/>
      <point x="421" y="-13"/>
    </contour>
    <contour>
      <point x="421" y="526" type="line"/>
      <point x="661" y="526" type="line"/>
      <point x="661" y="589" type="line"/>
      <point x="421" y="589" type="line"/>
    </contour>
    <contour>
      <point x="684" y="-240" type="curve"/>
      <point x="771" y="-240" type="line"/>
      <point x="769" y="-170"/>
      <point x="768" y="-97"/>
      <point x="768" y="-27" type="curve" smooth="yes"/>
      <point x="768" y="343" type="line"/>
      <point x="771" y="478" type="line"/>
      <point x="755" y="488" type="line"/>
      <point x="684" y="416" type="line"/>
      <point x="684" y="414" type="line"/>
      <point x="684" y="86" type="line"/>
      <point x="687" y="72" type="line"/>
      <point x="687" y="-27" type="line" smooth="yes"/>
      <point x="687" y="-97"/>
      <point x="686" y="-170"/>
    </contour>
  </outline>
</glyph>
<glyph name="uni001E" format="2">
  <advance width="1473"/>
  <unicode hex="001E"/>
  <outline>
    <contour>
      <point x="637" y="539" type="curve" smooth="yes"/>
      <point x="600" y="539"/>
      <point x="580" y="570"/>
      <point x="580" y="601" type="curve" smooth="yes"/>
      <point x="580" y="632"/>
      <point x="601" y="662"/>
      <point x="637" y="662" type="curve" smooth="yes"/>
      <point x="674" y="662"/>
      <point x="694" y="632"/>
      <point x="694" y="601" type="curve" smooth="yes"/>
      <point x="694" y="570"/>
      <point x="673" y="539"/>
    </contour>
    <contour>
      <point x="637" y="499" type="curve" smooth="yes"/>
      <point x="691" y="499"/>
      <point x="742" y="537"/>
      <point x="742" y="601" type="curve" smooth="yes"/>
      <point x="742" y="666"/>
      <point x="691" y="702"/>
      <point x="637" y="702" type="curve" smooth="yes"/>
      <point x="583" y="702"/>
      <point x="532" y="663"/>
      <point x="532" y="601" type="curve" smooth="yes"/>
      <point x="532" y="536"/>
      <point x="583" y="499"/>
    </contour>
    <contour>
      <point x="512" y="-6" type="line"/>
      <point x="549" y="-6" type="line"/>
      <point x="686" y="363" type="line"/>
      <point x="691" y="376" type="line"/>
      <point x="671" y="376" type="line"/>
      <point x="811" y="-6" type="line"/>
      <point x="848" y="-6" type="line"/>
      <point x="1012" y="475" type="line"/>
      <point x="955" y="475" type="line"/>
      <point x="841" y="104" type="line"/>
      <point x="837" y="90" type="line"/>
      <point x="856" y="90" type="line"/>
      <point x="712" y="475" type="line"/>
      <point x="678" y="475" type="line"/>
      <point x="542" y="104" type="line"/>
      <point x="537" y="89" type="line"/>
      <point x="557" y="89" type="line"/>
      <point x="427" y="475" type="line"/>
      <point x="333" y="475" type="line"/>
    </contour>
    <contour>
      <point x="294" y="436" type="line"/>
      <point x="392" y="419" type="line"/>
      <point x="413" y="419" type="line"/>
      <point x="522" y="436" type="line"/>
      <point x="522" y="475" type="line"/>
      <point x="294" y="475" type="line"/>
    </contour>
    <contour>
      <point x="585" y="436" type="line"/>
      <point x="690" y="419" type="line"/>
      <point x="711" y="419" type="line"/>
      <point x="806" y="436" type="line"/>
      <point x="806" y="475" type="line"/>
      <point x="585" y="475" type="line"/>
    </contour>
    <contour>
      <point x="865" y="436" type="line"/>
      <point x="957" y="419" type="line"/>
      <point x="977" y="419" type="line"/>
      <point x="1048" y="436" type="line"/>
      <point x="1048" y="475" type="line"/>
      <point x="865" y="475" type="line"/>
    </contour>
  </outline>
</glyph>
<glyph name="uni001E" format="2">
  <advance width="757"/>
  <unicode hex="001E"/>
  <outline>
    <contour>
      <point x="10" y="0" type="line"/>
      <point x="210" y="0" type="line"/>
      <point x="210" y="36" type="line"/>
      <point x="118" y="52" type="line"/>
      <point x="96" y="52" type="line"/>
      <point x="10" y="36" type="line"/>
    </contour>
    <contour>
      <point x="35" y="0" type="line"/>
      <point x="97" y="0" type="line"/>
      <point x="188" y="118" type="line"/>
      <point x="279" y="235" type="line"/>
      <point x="280" y="235" type="line"/>
      <point x="245" y="260" type="line"/>
    </contour>
    <contour>
      <point x="272" y="0" type="line"/>
      <point x="516" y="0" type="line"/>
      <point x="516" y="36" type="line"/>
      <point x="406" y="56" type="line"/>
      <point x="383" y="56" type="line"/>
      <point x="272" y="36" type="line"/>
    </contour>
    <contour>
      <point x="278" y="220" type="line"/>
      <point x="485" y="475" type="line"/>
      <point x="422" y="475" type="line"/>
      <point x="334" y="362" type="line"/>
      <point x="247" y="249" type="line"/>
      <point x="244" y="249" type="line"/>
    </contour>
    <contour>
      <point x="661" y="81" type="line"/>
      <point x="721" y="81" type="line"/>
      <point x="727" y="277" type="line"/>
      <point x="655" y="277" type="line"/>
    </contour>
    <contour>
      <point x="377" y="0" type="line"/>
      <point x="475" y="0" type="line"/>
      <point x="285" y="272" type="line"/>
      <point x="145" y="475" type="line"/>
      <point x="52" y="475" type="line"/>
      <point x="231" y="212" type="line"/>
    </contour>
    <contour>
      <point x="17" y="436" type="line"/>
      <point x="121" y="419" type="line"/>
      <point x="145" y="419" type="line"/>
      <point x="240" y="436" type="line"/>
      <point x="240" y="475" type="line"/>
      <point x="17" y="475" type="line"/>
    </contour>
    <contour>
      <point x="316" y="436" type="line"/>
      <point x="398" y="420" type="line"/>
      <point x="420" y="420" type="line"/>
      <point x="503" y="436" type="line"/>
      <point x="503" y="475" type="line"/>
      <point x="316" y="475" type="line"/>
    </contour>
  </outline>
</glyph>
<glyph name="uni001E" format="2">
  <advance width="1451"/>
  <unicode hex="001E"/>
  <outline>
    <contour>
      <point x="527" y="-250" type="curve" smooth="yes"/>
      <point x="609" y="-250"/>
      <point x="665" y="-174"/>
      <point x="732" y="3" type="curve" smooth="yes"/>
      <point x="911" y="475" type="line"/>
      <point x="856" y="475" type="line"/>
      <point x="780" y="264" type="line"/>
      <point x="690" y="15" type="line"/>
      <point x="687" y="8" type="line"/>
      <point x="671" y="-38" type="line" smooth="yes"/>
      <point x="647" y="-108"/>
      <point x="606" y="-176"/>
      <point x="541" y="-209" type="curve"/>
      <point x="568" y="-232" type="line"/>
      <point x="607" y="-209" type="line"/>
      <point x="576" y="-177" type="line" smooth="yes"/>
      <point x="549" y="-149"/>
      <point x="528" y="-139"/>
      <point x="502" y="-139" type="curve" smooth="yes"/>
      <point x="471" y="-139"/>
      <point x="442" y="-154"/>
      <point x="435" y="-183" type="curve"/>
      <point x="435" y="-222"/>
      <point x="477" y="-250"/>
    </contour>
    <contour>
      <point x="686" y="-53" type="line"/>
      <point x="729" y="52" type="line"/>
      <point x="722" y="72" type="line"/>
      <point x="573" y="475" type="line"/>
      <point x="476" y="475" type="line"/>
    </contour>
    <contour>
      <point x="547" y="539" type="curve" smooth="yes"/>
      <point x="580" y="539"/>
      <point x="607" y="563"/>
      <point x="607" y="596" type="curve" smooth="yes"/>
      <point x="607" y="628"/>
      <point x="580" y="653"/>
      <point x="547" y="653" type="curve" smooth="yes"/>
      <point x="515" y="653"/>
      <point x="488" y="628"/>
      <point x="488" y="596" type="curve" smooth="yes"/>
      <point x="488" y="563"/>
      <point x="515" y="539"/>
    </contour>
    <contour>
      <point x="757" y="539" type="curve" smooth="yes"/>
      <point x="789" y="539"/>
      <point x="816" y="563"/>
      <point x="816" y="596" type="curve" smooth="yes"/>
      <point x="816" y="628"/>
      <point x="789" y="653"/>
      <point x="757" y="653" type="curve" smooth="yes"/>
      <point x="724" y="653"/>
      <point x="697" y="628"/>
      <point x="697" y="596" type="curve" smooth="yes"/>
      <point x="697" y="563"/>
      <point x="724" y="539"/>
    </contour>
    <contour>
      <point x="439" y="439" type="line"/>
      <point x="536" y="424" type="line"/>
      <point x="561" y="424" type="line"/>
      <point x="679" y="438" type="line"/>
      <point x="679" y="475" type="line"/>
      <point x="439" y="475" type="line"/>
    </contour>
    <contour>
      <point x="752" y="439" type="line"/>
      <point x="856" y="424" type="line"/>
      <point x="876" y="424" type="line"/>
      <point x="947" y="439" type="line"/>
      <point x="947" y="475" type="line"/>
      <point x="752" y="475" type="line"/>
    </contour>
  </outline>
</glyph>
<glyph name="uni001E" format="2">
  <advance width="730"/>
  <unicode hex="001E"/>
  <outline>
    <contour>
      <point x="633" y="118" type="curve" smooth="yes"/>
      <point x="671" y="118"/>
      <point x="700" y="144"/>
      <point x="700" y="182" type="curve" smooth="yes"/>
      <point x="700" y="219"/>
      <point x="671" y="246"/>
      <point x="633" y="246" type="curve" smooth="yes"/>
      <point x="595" y="246"/>
      <point x="566" y="219"/>
      <point x="566" y="182" type="curve" smooth="yes"/>
      <point x="566" y="144"/>
      <point x="595" y="118"/>
    </contour>
    <contour>
      <point x="29" y="0" type="line"/>
      <point x="421" y="0" type="line"/>
      <point x="431" y="163" type="line"/>
      <point x="379" y="163" type="line"/>
      <point x="342" y="13" type="line"/>
      <point x="379" y="42" type="line"/>
      <point x="240" y="42" type="line"/>
      <point x="123" y="42" type="line"/>
      <point x="123" y="63" type="line"/>
      <point x="113" y="18" type="line"/>
      <point x="416" y="439" type="line"/>
      <point x="416" y="475" type="line"/>
      <point x="43" y="475" type="line"/>
      <point x="35" y="325" type="line"/>
      <point x="87" y="321" type="line"/>
      <point x="121" y="461" type="line"/>
      <point x="84" y="432" type="line"/>
      <point x="214" y="432" type="line"/>
      <point x="324" y="432" type="line"/>
      <point x="333" y="422" type="line"/>
      <point x="333" y="456" type="line"/>
      <point x="29" y="35" type="line"/>
    </contour>
  </outline>
</glyph>
